<?xml version="1.0" encoding="UTF-8" standalone="no"?>
<!DOCTYPE svg PUBLIC "-//W3C//DTD SVG 1.1//EN"
 "http://www.w3.org/Graphics/SVG/1.1/DTD/svg11.dtd">
<!-- Generated by graphviz version 14.1.1 (20251213.1925)
 -->
<!-- Title: InheritanceTree Pages: 1 -->
<svg width="372pt" height="501pt"
 viewBox="0.00 0.00 372.00 501.00" xmlns="http://www.w3.org/2000/svg" xmlns:xlink="http://www.w3.org/1999/xlink">
<g id="graph0" class="graph" transform="scale(1 1) rotate(0) translate(4 496.5)">
<title>InheritanceTree</title>
<polygon fill="white" stroke="none" points="-4,4 -4,-496.5 367.5,-496.5 367.5,4 -4,4"/>
<text xml:space="preserve" text-anchor="middle" x="181.75" y="-7.2" font-family="Times New Roman,serif" font-size="14.00">simple_graphql &#45; Inheritance Hierarchy</text>
<!-- GQL_CLIENT -->
<g id="node1" class="node">
<title>GQL_CLIENT</title>
<path fill="none" stroke="black" d="M104.88,-60.5C104.88,-60.5 30.38,-60.5 30.38,-60.5 24.38,-60.5 18.37,-54.5 18.37,-48.5 18.37,-48.5 18.37,-36.5 18.37,-36.5 18.37,-30.5 24.37,-24.5 30.37,-24.5 30.37,-24.5 104.88,-24.5 104.88,-24.5 110.88,-24.5 116.88,-30.5 116.88,-36.5 116.88,-36.5 116.88,-48.5 116.88,-48.5 116.88,-54.5 110.88,-60.5 104.88,-60.5"/>
<text xml:space="preserve" text-anchor="middle" x="67.62" y="-37.45" font-family="Times New Roman,serif" font-size="14.00">GQL_CLIENT</text>
</g>
<!-- GQL_ERROR -->
<g id="node2" class="node">
<title>GQL_ERROR</title>
<path fill="none" stroke="black" d="M103.38,-132.5C103.38,-132.5 31.88,-132.5 31.88,-132.5 25.88,-132.5 19.88,-126.5 19.88,-120.5 19.88,-120.5 19.88,-108.5 19.88,-108.5 19.88,-102.5 25.88,-96.5 31.88,-96.5 31.88,-96.5 103.38,-96.5 103.38,-96.5 109.38,-96.5 115.38,-102.5 115.38,-108.5 115.38,-108.5 115.38,-120.5 115.38,-120.5 115.38,-126.5 109.38,-132.5 103.38,-132.5"/>
<text xml:space="preserve" text-anchor="middle" x="67.62" y="-109.45" font-family="Times New Roman,serif" font-size="14.00">GQL_ERROR</text>
</g>
<!-- GQL_QUERY -->
<g id="node3" class="node">
<title>GQL_QUERY</title>
<path fill="none" stroke="black" d="M103.75,-204.5C103.75,-204.5 31.5,-204.5 31.5,-204.5 25.5,-204.5 19.5,-198.5 19.5,-192.5 19.5,-192.5 19.5,-180.5 19.5,-180.5 19.5,-174.5 25.5,-168.5 31.5,-168.5 31.5,-168.5 103.75,-168.5 103.75,-168.5 109.75,-168.5 115.75,-174.5 115.75,-180.5 115.75,-180.5 115.75,-192.5 115.75,-192.5 115.75,-198.5 109.75,-204.5 103.75,-204.5"/>
<text xml:space="preserve" text-anchor="middle" x="67.62" y="-181.45" font-family="Times New Roman,serif" font-size="14.00">GQL_QUERY</text>
</g>
<!-- GQL_RESULT -->
<g id="node4" class="node">
<title>GQL_RESULT</title>
<path fill="none" stroke="black" d="M106,-276.5C106,-276.5 29.25,-276.5 29.25,-276.5 23.25,-276.5 17.25,-270.5 17.25,-264.5 17.25,-264.5 17.25,-252.5 17.25,-252.5 17.25,-246.5 23.25,-240.5 29.25,-240.5 29.25,-240.5 106,-240.5 106,-240.5 112,-240.5 118,-246.5 118,-252.5 118,-252.5 118,-264.5 118,-264.5 118,-270.5 112,-276.5 106,-276.5"/>
<text xml:space="preserve" text-anchor="middle" x="67.62" y="-253.45" font-family="Times New Roman,serif" font-size="14.00">GQL_RESULT</text>
</g>
<!-- SIMPLE_GRAPHQL -->
<g id="node5" class="node">
<title>SIMPLE_GRAPHQL</title>
<path fill="none" stroke="black" d="M123.25,-348.5C123.25,-348.5 12,-348.5 12,-348.5 6,-348.5 0,-342.5 0,-336.5 0,-336.5 0,-324.5 0,-324.5 0,-318.5 6,-312.5 12,-312.5 12,-312.5 123.25,-312.5 123.25,-312.5 129.25,-312.5 135.25,-318.5 135.25,-324.5 135.25,-324.5 135.25,-336.5 135.25,-336.5 135.25,-342.5 129.25,-348.5 123.25,-348.5"/>
<text xml:space="preserve" text-anchor="middle" x="67.62" y="-325.45" font-family="Times New Roman,serif" font-size="14.00">SIMPLE_GRAPHQL</text>
</g>
<!-- LIB_TESTS -->
<g id="node6" class="node">
<title>LIB_TESTS</title>
<path fill="none" stroke="black" d="M97.75,-420.5C97.75,-420.5 37.5,-420.5 37.5,-420.5 31.5,-420.5 25.5,-414.5 25.5,-408.5 25.5,-408.5 25.5,-396.5 25.5,-396.5 25.5,-390.5 31.5,-384.5 37.5,-384.5 37.5,-384.5 97.75,-384.5 97.75,-384.5 103.75,-384.5 109.75,-390.5 109.75,-396.5 109.75,-396.5 109.75,-408.5 109.75,-408.5 109.75,-414.5 103.75,-420.5 97.75,-420.5"/>
<text xml:space="preserve" text-anchor="middle" x="67.62" y="-397.45" font-family="Times New Roman,serif" font-size="14.00">LIB_TESTS</text>
</g>
<!-- TEST_SET_BASE -->
<g id="node7" class="node">
<title>TEST_SET_BASE</title>
<path fill="none" stroke="black" d="M351.5,-420.5C351.5,-420.5 255.25,-420.5 255.25,-420.5 249.25,-420.5 243.25,-414.5 243.25,-408.5 243.25,-408.5 243.25,-396.5 243.25,-396.5 243.25,-390.5 249.25,-384.5 255.25,-384.5 255.25,-384.5 351.5,-384.5 351.5,-384.5 357.5,-384.5 363.5,-390.5 363.5,-396.5 363.5,-396.5 363.5,-408.5 363.5,-408.5 363.5,-414.5 357.5,-420.5 351.5,-420.5"/>
<text xml:space="preserve" text-anchor="middle" x="303.38" y="-397.45" font-family="Times New Roman,serif" font-size="14.00">TEST_SET_BASE</text>
</g>
<!-- LIB_TESTS&#45;&gt;TEST_SET_BASE -->
<g id="edge1" class="edge">
<title>LIB_TESTS&#45;&gt;TEST_SET_BASE</title>
<path fill="none" stroke="black" d="M110.04,-402.5C110.04,-402.5 231.61,-402.5 231.61,-402.5"/>
<polygon fill="none" stroke="black" points="231.61,-406 241.61,-402.5 231.61,-399 231.61,-406"/>
</g>
<!-- TEST_APP -->
<g id="node8" class="node">
<title>TEST_APP</title>
<path fill="none" stroke="black" d="M95.5,-492.5C95.5,-492.5 39.75,-492.5 39.75,-492.5 33.75,-492.5 27.75,-486.5 27.75,-480.5 27.75,-480.5 27.75,-468.5 27.75,-468.5 27.75,-462.5 33.75,-456.5 39.75,-456.5 39.75,-456.5 95.5,-456.5 95.5,-456.5 101.5,-456.5 107.5,-462.5 107.5,-468.5 107.5,-468.5 107.5,-480.5 107.5,-480.5 107.5,-486.5 101.5,-492.5 95.5,-492.5"/>
<text xml:space="preserve" text-anchor="middle" x="67.62" y="-469.45" font-family="Times New Roman,serif" font-size="14.00">TEST_APP</text>
</g>
</g>
</svg>
