<?xml version="1.0" encoding="UTF-8" standalone="no"?>
<!DOCTYPE svg PUBLIC "-//W3C//DTD SVG 1.1//EN"
 "http://www.w3.org/Graphics/SVG/1.1/DTD/svg11.dtd">
<!-- Generated by graphviz version 14.1.1 (20251213.1925)
 -->
<!-- Title: ContractCoverage Pages: 1 -->
<svg width="816pt" height="908pt"
 viewBox="48.00 48.00 768.00 860.00" xmlns="http://www.w3.org/2000/svg" xmlns:xlink="http://www.w3.org/1999/xlink">
<g id="graph0" class="graph" transform="scale(0.727227 0.727227) rotate(0) translate(70 1178.25)">
<title>ContractCoverage</title>
<polygon fill="white" stroke="none" points="-4,4 -4,-1112.25 986.06,-1112.25 986.06,4 -4,4"/>
<text xml:space="preserve" text-anchor="middle" x="491.03" y="-1094.75" font-family="Times New Roman,serif" font-size="10.00">simple_graphql &#45; Contract Coverage</text>
<g id="clust1" class="cluster">
<title>cluster_GQL_CLIENT</title>
<polygon fill="white" stroke="black" points="145.5,-782.5 145.5,-1089 379.5,-1089 379.5,-782.5 145.5,-782.5"/>
<text xml:space="preserve" text-anchor="middle" x="262.5" y="-1071.7" font-family="Times New Roman,serif" font-size="14.00">GQL_CLIENT</text>
</g>
<g id="clust2" class="cluster">
<title>cluster_GQL_ERROR</title>
<polygon fill="white" stroke="black" points="435.5,-724.5 435.5,-1013 669.5,-1013 669.5,-724.5 435.5,-724.5"/>
<text xml:space="preserve" text-anchor="middle" x="552.5" y="-995.7" font-family="Times New Roman,serif" font-size="14.00">GQL_ERROR</text>
</g>
<g id="clust3" class="cluster">
<title>cluster_GQL_QUERY</title>
<polygon fill="white" stroke="black" points="724.94,-202.5 724.94,-521 982.06,-521 982.06,-202.5 724.94,-202.5"/>
<text xml:space="preserve" text-anchor="middle" x="853.5" y="-503.7" font-family="Times New Roman,serif" font-size="14.00">GQL_QUERY</text>
</g>
<g id="clust4" class="cluster">
<title>cluster_GQL_RESULT</title>
<polygon fill="white" stroke="black" points="725.5,-579.5 725.5,-868 959.5,-868 959.5,-579.5 725.5,-579.5"/>
<text xml:space="preserve" text-anchor="middle" x="842.5" y="-850.7" font-family="Times New Roman,serif" font-size="14.00">GQL_RESULT</text>
</g>
<g id="clust5" class="cluster">
<title>cluster_SIMPLE_GRAPHQL</title>
<polygon fill="white" stroke="black" points="261.5,-289.5 261.5,-650 657.5,-650 657.5,-289.5 261.5,-289.5"/>
<text xml:space="preserve" text-anchor="middle" x="459.5" y="-632.7" font-family="Times New Roman,serif" font-size="14.00">SIMPLE_GRAPHQL</text>
</g>
<g id="clust6" class="cluster">
<title>cluster_LIB_TESTS</title>
<polygon fill="white" stroke="black" points="580.25,-173.5 580.25,-234 648.75,-234 648.75,-173.5 580.25,-173.5"/>
<text xml:space="preserve" text-anchor="middle" x="614.5" y="-216.7" font-family="Times New Roman,serif" font-size="14.00">LIB_TESTS</text>
</g>
<g id="clust7" class="cluster">
<title>cluster_TEST_APP</title>
<polygon fill="white" stroke="black" points="0,0 0,-225.5 219,-225.5 219,0 0,0"/>
<text xml:space="preserve" text-anchor="middle" x="109.5" y="-208.2" font-family="Times New Roman,serif" font-size="14.00">TEST_APP</text>
</g>
<g id="clust8" class="cluster">
<title>cluster_legend</title>
<polygon fill="lightyellow" stroke="black" points="290.12,-28.62 290.12,-224.88 510.88,-224.88 510.88,-28.62 290.12,-28.62"/>
<text xml:space="preserve" text-anchor="middle" x="400.5" y="-211.38" font-family="Times New Roman,serif" font-size="10.00">Legend</text>
</g>
<!-- GQL_CLIENT_make -->
<g id="node1" class="node">
<title>GQL_CLIENT_make</title>
<polygon fill="palegreen" stroke="black" points="199.5,-860.5 145.5,-860.5 145.5,-824.5 199.5,-824.5 199.5,-860.5"/>
<text xml:space="preserve" text-anchor="middle" x="172.5" y="-838.63" font-family="Times New Roman,serif" font-size="10.00">make</text>
</g>
<!-- GQL_CLIENT_endpoint -->
<g id="node2" class="node">
<title>GQL_CLIENT_endpoint</title>
<polygon fill="lightgray" stroke="black" points="301.5,-1064.5 247.5,-1064.5 247.5,-1028.5 301.5,-1028.5 301.5,-1064.5"/>
<text xml:space="preserve" text-anchor="middle" x="274.5" y="-1042.62" font-family="Times New Roman,serif" font-size="10.00">endpoint</text>
</g>
<!-- GQL_CLIENT_execute -->
<g id="node3" class="node">
<title>GQL_CLIENT_execute</title>
<polygon fill="palegreen" stroke="black" points="379.5,-1040.5 325.5,-1040.5 325.5,-1004.5 379.5,-1004.5 379.5,-1040.5"/>
<text xml:space="preserve" text-anchor="middle" x="352.5" y="-1018.62" font-family="Times New Roman,serif" font-size="10.00">execute</text>
</g>
<!-- GQL_CLIENT_build_request_body -->
<g id="node4" class="node">
<title>GQL_CLIENT_build_request_body</title>
<polygon fill="palegreen" stroke="black" points="273.75,-920.5 175.25,-920.5 175.25,-884.5 273.75,-884.5 273.75,-920.5"/>
<text xml:space="preserve" text-anchor="middle" x="224.5" y="-898.63" font-family="Times New Roman,serif" font-size="10.00">build_request_body</text>
</g>
<!-- GQL_CLIENT_parse_response -->
<g id="node5" class="node">
<title>GQL_CLIENT_parse_response</title>
<polygon fill="palegreen" stroke="black" points="342.25,-980.5 264.75,-980.5 264.75,-944.5 342.25,-944.5 342.25,-980.5"/>
<text xml:space="preserve" text-anchor="middle" x="303.5" y="-958.63" font-family="Times New Roman,serif" font-size="10.00">parse_response</text>
</g>
<!-- GQL_CLIENT_add_header -->
<g id="node6" class="node">
<title>GQL_CLIENT_add_header</title>
<polygon fill="palegreen" stroke="black" points="358.12,-878.5 294.87,-878.5 294.87,-842.5 358.12,-842.5 358.12,-878.5"/>
<text xml:space="preserve" text-anchor="middle" x="326.5" y="-856.63" font-family="Times New Roman,serif" font-size="10.00">add_header</text>
</g>
<!-- GQL_CLIENT_clear_headers -->
<g id="node7" class="node">
<title>GQL_CLIENT_clear_headers</title>
<polygon fill="khaki" stroke="black" points="240.25,-1004.5 168.75,-1004.5 168.75,-968.5 240.25,-968.5 240.25,-1004.5"/>
<text xml:space="preserve" text-anchor="middle" x="204.5" y="-982.62" font-family="Times New Roman,serif" font-size="10.00">clear_headers</text>
</g>
<!-- GQL_CLIENT_http -->
<g id="node8" class="node">
<title>GQL_CLIENT_http</title>
<polygon fill="lightgray" stroke="black" points="223.5,-1064.5 169.5,-1064.5 169.5,-1028.5 223.5,-1028.5 223.5,-1064.5"/>
<text xml:space="preserve" text-anchor="middle" x="196.5" y="-1042.62" font-family="Times New Roman,serif" font-size="10.00">http</text>
</g>
<!-- GQL_CLIENT_headers -->
<g id="node9" class="node">
<title>GQL_CLIENT_headers</title>
<polygon fill="lightgray" stroke="black" points="283.5,-818.5 229.5,-818.5 229.5,-782.5 283.5,-782.5 283.5,-818.5"/>
<text xml:space="preserve" text-anchor="middle" x="256.5" y="-796.63" font-family="Times New Roman,serif" font-size="10.00">headers</text>
</g>
<!-- GQL_ERROR_make -->
<g id="node10" class="node">
<title>GQL_ERROR_make</title>
<polygon fill="palegreen" stroke="black" points="573.5,-760.5 519.5,-760.5 519.5,-724.5 573.5,-724.5 573.5,-760.5"/>
<text xml:space="preserve" text-anchor="middle" x="546.5" y="-738.62" font-family="Times New Roman,serif" font-size="10.00">make</text>
</g>
<!-- GQL_ERROR_make_from_json -->
<g id="node11" class="node">
<title>GQL_ERROR_make_from_json</title>
<polygon fill="palegreen" stroke="black" points="555.62,-856.5 471.38,-856.5 471.38,-820.5 555.62,-820.5 555.62,-856.5"/>
<text xml:space="preserve" text-anchor="middle" x="513.5" y="-834.62" font-family="Times New Roman,serif" font-size="10.00">make_from_json</text>
</g>
<!-- GQL_ERROR_message -->
<g id="node12" class="node">
<title>GQL_ERROR_message</title>
<polygon fill="lightgray" stroke="black" points="513.5,-988.5 459.5,-988.5 459.5,-952.5 513.5,-952.5 513.5,-988.5"/>
<text xml:space="preserve" text-anchor="middle" x="486.5" y="-966.62" font-family="Times New Roman,serif" font-size="10.00">message</text>
</g>
<!-- GQL_ERROR_locations -->
<g id="node13" class="node">
<title>GQL_ERROR_locations</title>
<polygon fill="lightgray" stroke="black" points="489.5,-796.5 435.5,-796.5 435.5,-760.5 489.5,-760.5 489.5,-796.5"/>
<text xml:space="preserve" text-anchor="middle" x="462.5" y="-774.62" font-family="Times New Roman,serif" font-size="10.00">locations</text>
</g>
<!-- GQL_ERROR_path -->
<g id="node14" class="node">
<title>GQL_ERROR_path</title>
<polygon fill="lightgray" stroke="black" points="651.5,-760.5 597.5,-760.5 597.5,-724.5 651.5,-724.5 651.5,-760.5"/>
<text xml:space="preserve" text-anchor="middle" x="624.5" y="-738.62" font-family="Times New Roman,serif" font-size="10.00">path</text>
</g>
<!-- GQL_ERROR_has_locations -->
<g id="node15" class="node">
<title>GQL_ERROR_has_locations</title>
<polygon fill="khaki" stroke="black" points="651.62,-820.5 579.38,-820.5 579.38,-784.5 651.62,-784.5 651.62,-820.5"/>
<text xml:space="preserve" text-anchor="middle" x="615.5" y="-798.62" font-family="Times New Roman,serif" font-size="10.00">has_locations</text>
</g>
<!-- GQL_ERROR_has_path -->
<g id="node16" class="node">
<title>GQL_ERROR_has_path</title>
<polygon fill="khaki" stroke="black" points="669.5,-976.5 615.5,-976.5 615.5,-940.5 669.5,-940.5 669.5,-976.5"/>
<text xml:space="preserve" text-anchor="middle" x="642.5" y="-954.62" font-family="Times New Roman,serif" font-size="10.00">has_path</text>
</g>
<!-- GQL_ERROR_to_string -->
<g id="node17" class="node">
<title>GQL_ERROR_to_string</title>
<polygon fill="khaki" stroke="black" points="591.5,-988.5 537.5,-988.5 537.5,-952.5 591.5,-952.5 591.5,-988.5"/>
<text xml:space="preserve" text-anchor="middle" x="564.5" y="-966.62" font-family="Times New Roman,serif" font-size="10.00">to_string</text>
</g>
<!-- GQL_ERROR_parse_locations -->
<g id="node18" class="node">
<title>GQL_ERROR_parse_locations</title>
<polygon fill="khaki" stroke="black" points="634.38,-916.5 554.62,-916.5 554.62,-880.5 634.38,-880.5 634.38,-916.5"/>
<text xml:space="preserve" text-anchor="middle" x="594.5" y="-894.62" font-family="Times New Roman,serif" font-size="10.00">parse_locations</text>
</g>
<!-- GQL_ERROR_parse_path -->
<g id="node19" class="node">
<title>GQL_ERROR_parse_path</title>
<polygon fill="khaki" stroke="black" points="531.62,-928.5 471.37,-928.5 471.37,-892.5 531.62,-892.5 531.62,-928.5"/>
<text xml:space="preserve" text-anchor="middle" x="501.5" y="-906.62" font-family="Times New Roman,serif" font-size="10.00">parse_path</text>
</g>
<!-- GQL_QUERY_make -->
<g id="node20" class="node">
<title>GQL_QUERY_make</title>
<polygon fill="palegreen" stroke="black" points="803.69,-496.5 749.69,-496.5 749.69,-460.5 803.69,-460.5 803.69,-496.5"/>
<text xml:space="preserve" text-anchor="middle" x="776.69" y="-474.62" font-family="Times New Roman,serif" font-size="10.00">make</text>
</g>
<!-- GQL_QUERY_make_with_variables -->
<g id="node21" class="node">
<title>GQL_QUERY_make_with_variables</title>
<polygon fill="palegreen" stroke="black" points="858.56,-346.5 754.81,-346.5 754.81,-310.5 858.56,-310.5 858.56,-346.5"/>
<text xml:space="preserve" text-anchor="middle" x="806.69" y="-324.62" font-family="Times New Roman,serif" font-size="10.00">make_with_variables</text>
</g>
<!-- GQL_QUERY_make_with_operation -->
<g id="node22" class="node">
<title>GQL_QUERY_make_with_operation</title>
<polygon fill="palegreen" stroke="black" points="951.69,-406.5 845.69,-406.5 845.69,-370.5 951.69,-370.5 951.69,-406.5"/>
<text xml:space="preserve" text-anchor="middle" x="898.69" y="-384.62" font-family="Times New Roman,serif" font-size="10.00">make_with_operation</text>
</g>
<!-- GQL_QUERY_query -->
<g id="node23" class="node">
<title>GQL_QUERY_query</title>
<polygon fill="lightgray" stroke="black" points="881.69,-496.5 827.69,-496.5 827.69,-460.5 881.69,-460.5 881.69,-496.5"/>
<text xml:space="preserve" text-anchor="middle" x="854.69" y="-474.62" font-family="Times New Roman,serif" font-size="10.00">query</text>
</g>
<!-- GQL_QUERY_variables -->
<g id="node24" class="node">
<title>GQL_QUERY_variables</title>
<polygon fill="lightgray" stroke="black" points="959.69,-466.5 905.69,-466.5 905.69,-430.5 959.69,-430.5 959.69,-466.5"/>
<text xml:space="preserve" text-anchor="middle" x="932.69" y="-444.62" font-family="Times New Roman,serif" font-size="10.00">variables</text>
</g>
<!-- GQL_QUERY_operation_name -->
<g id="node25" class="node">
<title>GQL_QUERY_operation_name</title>
<polygon fill="lightgray" stroke="black" points="825.69,-436.5 743.69,-436.5 743.69,-400.5 825.69,-400.5 825.69,-436.5"/>
<text xml:space="preserve" text-anchor="middle" x="784.69" y="-414.62" font-family="Times New Roman,serif" font-size="10.00">operation_name</text>
</g>
<!-- GQL_QUERY_has_variables -->
<g id="node26" class="node">
<title>GQL_QUERY_has_variables</title>
<polygon fill="khaki" stroke="black" points="796.44,-286.5 724.94,-286.5 724.94,-250.5 796.44,-250.5 796.44,-286.5"/>
<text xml:space="preserve" text-anchor="middle" x="760.69" y="-264.62" font-family="Times New Roman,serif" font-size="10.00">has_variables</text>
</g>
<!-- GQL_QUERY_has_operation_name -->
<g id="node27" class="node">
<title>GQL_QUERY_has_operation_name</title>
<polygon fill="khaki" stroke="black" points="982.06,-298.5 881.31,-298.5 881.31,-262.5 982.06,-262.5 982.06,-298.5"/>
<text xml:space="preserve" text-anchor="middle" x="931.69" y="-276.62" font-family="Times New Roman,serif" font-size="10.00">has_operation_name</text>
</g>
<!-- GQL_QUERY_to_json -->
<g id="node28" class="node">
<title>GQL_QUERY_to_json</title>
<polygon fill="khaki" stroke="black" points="875.69,-238.5 821.69,-238.5 821.69,-202.5 875.69,-202.5 875.69,-238.5"/>
<text xml:space="preserve" text-anchor="middle" x="848.69" y="-216.62" font-family="Times New Roman,serif" font-size="10.00">to_json</text>
</g>
<!-- GQL_RESULT_make -->
<g id="node29" class="node">
<title>GQL_RESULT_make</title>
<polygon fill="palegreen" stroke="black" points="863.5,-615.5 809.5,-615.5 809.5,-579.5 863.5,-579.5 863.5,-615.5"/>
<text xml:space="preserve" text-anchor="middle" x="836.5" y="-593.62" font-family="Times New Roman,serif" font-size="10.00">make</text>
</g>
<!-- GQL_RESULT_make_error -->
<g id="node30" class="node">
<title>GQL_RESULT_make_error</title>
<polygon fill="palegreen" stroke="black" points="930.38,-675.5 868.62,-675.5 868.62,-639.5 930.38,-639.5 930.38,-675.5"/>
<text xml:space="preserve" text-anchor="middle" x="899.5" y="-653.62" font-family="Times New Roman,serif" font-size="10.00">make_error</text>
</g>
<!-- GQL_RESULT_data -->
<g id="node31" class="node">
<title>GQL_RESULT_data</title>
<polygon fill="lightgray" stroke="black" points="779.5,-651.5 725.5,-651.5 725.5,-615.5 779.5,-615.5 779.5,-651.5"/>
<text xml:space="preserve" text-anchor="middle" x="752.5" y="-629.62" font-family="Times New Roman,serif" font-size="10.00">data</text>
</g>
<!-- GQL_RESULT_errors -->
<g id="node32" class="node">
<title>GQL_RESULT_errors</title>
<polygon fill="lightgray" stroke="black" points="941.5,-615.5 887.5,-615.5 887.5,-579.5 941.5,-579.5 941.5,-615.5"/>
<text xml:space="preserve" text-anchor="middle" x="914.5" y="-593.62" font-family="Times New Roman,serif" font-size="10.00">errors</text>
</g>
<!-- GQL_RESULT_raw_json -->
<g id="node33" class="node">
<title>GQL_RESULT_raw_json</title>
<polygon fill="lightgray" stroke="black" points="959.5,-831.5 905.5,-831.5 905.5,-795.5 959.5,-795.5 959.5,-831.5"/>
<text xml:space="preserve" text-anchor="middle" x="932.5" y="-809.62" font-family="Times New Roman,serif" font-size="10.00">raw_json</text>
</g>
<!-- GQL_RESULT_first_error_message -->
<g id="node34" class="node">
<title>GQL_RESULT_first_error_message</title>
<polygon fill="khaki" stroke="black" points="849.88,-711.5 755.12,-711.5 755.12,-675.5 849.88,-675.5 849.88,-711.5"/>
<text xml:space="preserve" text-anchor="middle" x="802.5" y="-689.62" font-family="Times New Roman,serif" font-size="10.00">first_error_message</text>
</g>
<!-- GQL_RESULT_is_successful -->
<g id="node35" class="node">
<title>GQL_RESULT_is_successful</title>
<polygon fill="khaki" stroke="black" points="914.12,-771.5 844.88,-771.5 844.88,-735.5 914.12,-735.5 914.12,-771.5"/>
<text xml:space="preserve" text-anchor="middle" x="879.5" y="-749.62" font-family="Times New Roman,serif" font-size="10.00">is_successful</text>
</g>
<!-- GQL_RESULT_has_errors -->
<g id="node36" class="node">
<title>GQL_RESULT_has_errors</title>
<polygon fill="khaki" stroke="black" points="884.12,-843.5 826.88,-843.5 826.88,-807.5 884.12,-807.5 884.12,-843.5"/>
<text xml:space="preserve" text-anchor="middle" x="855.5" y="-821.62" font-family="Times New Roman,serif" font-size="10.00">has_errors</text>
</g>
<!-- GQL_RESULT_has_data -->
<g id="node37" class="node">
<title>GQL_RESULT_has_data</title>
<polygon fill="khaki" stroke="black" points="803.5,-843.5 749.5,-843.5 749.5,-807.5 803.5,-807.5 803.5,-843.5"/>
<text xml:space="preserve" text-anchor="middle" x="776.5" y="-821.62" font-family="Times New Roman,serif" font-size="10.00">has_data</text>
</g>
<!-- GQL_RESULT_parse_errors -->
<g id="node38" class="node">
<title>GQL_RESULT_parse_errors</title>
<polygon fill="khaki" stroke="black" points="825.88,-783.5 761.12,-783.5 761.12,-747.5 825.88,-747.5 825.88,-783.5"/>
<text xml:space="preserve" text-anchor="middle" x="793.5" y="-761.62" font-family="Times New Roman,serif" font-size="10.00">parse_errors</text>
</g>
<!-- SIMPLE_GRAPHQL_make -->
<g id="node39" class="node">
<title>SIMPLE_GRAPHQL_make</title>
<polygon fill="palegreen" stroke="black" points="657.5,-397.5 603.5,-397.5 603.5,-361.5 657.5,-361.5 657.5,-397.5"/>
<text xml:space="preserve" text-anchor="middle" x="630.5" y="-375.62" font-family="Times New Roman,serif" font-size="10.00">make</text>
</g>
<!-- SIMPLE_GRAPHQL_endpoint_url -->
<g id="node40" class="node">
<title>SIMPLE_GRAPHQL_endpoint_url</title>
<polygon fill="lightgray" stroke="black" points="510.13,-337.5 440.88,-337.5 440.88,-301.5 510.13,-301.5 510.13,-337.5"/>
<text xml:space="preserve" text-anchor="middle" x="475.5" y="-315.62" font-family="Times New Roman,serif" font-size="10.00">endpoint_url</text>
</g>
<!-- SIMPLE_GRAPHQL_last_result -->
<g id="node41" class="node">
<title>SIMPLE_GRAPHQL_last_result</title>
<polygon fill="lightgray" stroke="black" points="319.5,-421.5 261.5,-421.5 261.5,-385.5 319.5,-385.5 319.5,-421.5"/>
<text xml:space="preserve" text-anchor="middle" x="290.5" y="-399.62" font-family="Times New Roman,serif" font-size="10.00">last_result</text>
</g>
<!-- SIMPLE_GRAPHQL_last_error -->
<g id="node42" class="node">
<title>SIMPLE_GRAPHQL_last_error</title>
<polygon fill="lightgray" stroke="black" points="327.62,-553.5 273.38,-553.5 273.38,-517.5 327.62,-517.5 327.62,-553.5"/>
<text xml:space="preserve" text-anchor="middle" x="300.5" y="-531.62" font-family="Times New Roman,serif" font-size="10.00">last_error</text>
</g>
<!-- SIMPLE_GRAPHQL_has_error -->
<g id="node43" class="node">
<title>SIMPLE_GRAPHQL_has_error</title>
<polygon fill="khaki" stroke="black" points="333.5,-325.5 279.5,-325.5 279.5,-289.5 333.5,-289.5 333.5,-325.5"/>
<text xml:space="preserve" text-anchor="middle" x="306.5" y="-303.62" font-family="Times New Roman,serif" font-size="10.00">has_error</text>
</g>
<!-- SIMPLE_GRAPHQL_query -->
<g id="node44" class="node">
<title>SIMPLE_GRAPHQL_query</title>
<polygon fill="palegreen" stroke="black" points="333.5,-613.5 279.5,-613.5 279.5,-577.5 333.5,-577.5 333.5,-613.5"/>
<text xml:space="preserve" text-anchor="middle" x="306.5" y="-591.62" font-family="Times New Roman,serif" font-size="10.00">query</text>
</g>
<!-- SIMPLE_GRAPHQL_query_with_variables -->
<g id="node45" class="node">
<title>SIMPLE_GRAPHQL_query_with_variables</title>
<polygon fill="palegreen" stroke="black" points="474.13,-445.5 368.88,-445.5 368.88,-409.5 474.13,-409.5 474.13,-445.5"/>
<text xml:space="preserve" text-anchor="middle" x="421.5" y="-423.62" font-family="Times New Roman,serif" font-size="10.00">query_with_variables</text>
</g>
<!-- SIMPLE_GRAPHQL_mutation -->
<g id="node46" class="node">
<title>SIMPLE_GRAPHQL_mutation</title>
<polygon fill="lightgray" stroke="black" points="411.5,-601.5 357.5,-601.5 357.5,-565.5 411.5,-565.5 411.5,-601.5"/>
<text xml:space="preserve" text-anchor="middle" x="384.5" y="-579.62" font-family="Times New Roman,serif" font-size="10.00">mutation</text>
</g>
<!-- SIMPLE_GRAPHQL_mutation_not_empty -->
<g id="node47" class="node">
<title>SIMPLE_GRAPHQL_mutation_not_empty</title>
<polygon fill="lightgray" stroke="black" points="561.62,-505.5 459.38,-505.5 459.38,-469.5 561.62,-469.5 561.62,-505.5"/>
<text xml:space="preserve" text-anchor="middle" x="510.5" y="-483.62" font-family="Times New Roman,serif" font-size="10.00">mutation_not_empty</text>
</g>
<!-- SIMPLE_GRAPHQL_a_mutation -->
<g id="node48" class="node">
<title>SIMPLE_GRAPHQL_a_mutation</title>
<polygon fill="lightgray" stroke="black" points="593.75,-337.5 531.25,-337.5 531.25,-301.5 593.75,-301.5 593.75,-337.5"/>
<text xml:space="preserve" text-anchor="middle" x="562.5" y="-315.62" font-family="Times New Roman,serif" font-size="10.00">a_mutation</text>
</g>
<!-- SIMPLE_GRAPHQL_is_empty -->
<g id="node49" class="node">
<title>SIMPLE_GRAPHQL_is_empty</title>
<polygon fill="khaki" stroke="black" points="345.5,-481.5 291.5,-481.5 291.5,-445.5 345.5,-445.5 345.5,-481.5"/>
<text xml:space="preserve" text-anchor="middle" x="318.5" y="-459.62" font-family="Times New Roman,serif" font-size="10.00">is_empty</text>
</g>
<!-- SIMPLE_GRAPHQL_set_header -->
<g id="node50" class="node">
<title>SIMPLE_GRAPHQL_set_header</title>
<polygon fill="lightgray" stroke="black" points="494.25,-601.5 434.75,-601.5 434.75,-565.5 494.25,-565.5 494.25,-601.5"/>
<text xml:space="preserve" text-anchor="middle" x="464.5" y="-579.62" font-family="Times New Roman,serif" font-size="10.00">set_header</text>
</g>
<!-- SIMPLE_GRAPHQL_name_not_empty -->
<g id="node51" class="node">
<title>SIMPLE_GRAPHQL_name_not_empty</title>
<polygon fill="lightgray" stroke="black" points="582.12,-397.5 494.88,-397.5 494.88,-361.5 582.12,-361.5 582.12,-397.5"/>
<text xml:space="preserve" text-anchor="middle" x="538.5" y="-375.62" font-family="Times New Roman,serif" font-size="10.00">name_not_empty</text>
</g>
<!-- SIMPLE_GRAPHQL_a_name -->
<g id="node52" class="node">
<title>SIMPLE_GRAPHQL_a_name</title>
<polygon fill="lightgray" stroke="black" points="411.5,-325.5 357.5,-325.5 357.5,-289.5 411.5,-289.5 411.5,-325.5"/>
<text xml:space="preserve" text-anchor="middle" x="384.5" y="-303.62" font-family="Times New Roman,serif" font-size="10.00">a_name</text>
</g>
<!-- SIMPLE_GRAPHQL_value_not_empty -->
<g id="node53" class="node">
<title>SIMPLE_GRAPHQL_value_not_empty</title>
<polygon fill="lightgray" stroke="black" points="439.5,-541.5 351.5,-541.5 351.5,-505.5 439.5,-505.5 439.5,-541.5"/>
<text xml:space="preserve" text-anchor="middle" x="395.5" y="-519.62" font-family="Times New Roman,serif" font-size="10.00">value_not_empty</text>
</g>
<!-- SIMPLE_GRAPHQL_a_value -->
<g id="node54" class="node">
<title>SIMPLE_GRAPHQL_a_value</title>
<polygon fill="lightgray" stroke="black" points="633.5,-625.5 579.5,-625.5 579.5,-589.5 633.5,-589.5 633.5,-625.5"/>
<text xml:space="preserve" text-anchor="middle" x="606.5" y="-603.62" font-family="Times New Roman,serif" font-size="10.00">a_value</text>
</g>
<!-- SIMPLE_GRAPHQL_client -->
<g id="node55" class="node">
<title>SIMPLE_GRAPHQL_client</title>
<polygon fill="lightgray" stroke="black" points="639.5,-457.5 585.5,-457.5 585.5,-421.5 639.5,-421.5 639.5,-457.5"/>
<text xml:space="preserve" text-anchor="middle" x="612.5" y="-435.62" font-family="Times New Roman,serif" font-size="10.00">client</text>
</g>
<!-- SIMPLE_GRAPHQL_default_headers -->
<g id="node56" class="node">
<title>SIMPLE_GRAPHQL_default_headers</title>
<polygon fill="lightgray" stroke="black" points="419.75,-385.5 339.25,-385.5 339.25,-349.5 419.75,-349.5 419.75,-385.5"/>
<text xml:space="preserve" text-anchor="middle" x="379.5" y="-363.62" font-family="Times New Roman,serif" font-size="10.00">default_headers</text>
</g>
<!-- SIMPLE_GRAPHQL_apply_headers -->
<g id="node57" class="node">
<title>SIMPLE_GRAPHQL_apply_headers</title>
<polygon fill="lightcoral" stroke="black" points="594.12,-565.5 518.88,-565.5 518.88,-529.5 594.12,-529.5 594.12,-565.5"/>
<text xml:space="preserve" text-anchor="middle" x="556.5" y="-543.62" font-family="Times New Roman,serif" font-size="10.00">apply_headers</text>
</g>
<!-- LIB_TESTS_test_creation -->
<g id="node58" class="node">
<title>LIB_TESTS_test_creation</title>
<polygon fill="lightcoral" stroke="black" points="648.75,-209.5 580.25,-209.5 580.25,-173.5 648.75,-173.5 648.75,-209.5"/>
<text xml:space="preserve" text-anchor="middle" x="614.5" y="-187.62" font-family="Times New Roman,serif" font-size="10.00">test_creation</text>
</g>
<!-- TEST_APP_make -->
<g id="node59" class="node">
<title>TEST_APP_make</title>
<polygon fill="lightcoral" stroke="black" points="219,-201 165,-201 165,-165 219,-165 219,-201"/>
<text xml:space="preserve" text-anchor="middle" x="192" y="-179.12" font-family="Times New Roman,serif" font-size="10.00">make</text>
</g>
<!-- TEST_APP_run_lib_tests -->
<g id="node60" class="node">
<title>TEST_APP_run_lib_tests</title>
<polygon fill="lightcoral" stroke="black" points="103.63,-91 34.38,-91 34.38,-55 103.63,-55 103.63,-91"/>
<text xml:space="preserve" text-anchor="middle" x="69" y="-69.12" font-family="Times New Roman,serif" font-size="10.00">run_lib_tests</text>
</g>
<!-- TEST_APP_lib_tests -->
<g id="node61" class="node">
<title>TEST_APP_lib_tests</title>
<polygon fill="lightgray" stroke="black" points="164,-146 110,-146 110,-110 164,-110 164,-146"/>
<text xml:space="preserve" text-anchor="middle" x="137" y="-124.12" font-family="Times New Roman,serif" font-size="10.00">lib_tests</text>
</g>
<!-- TEST_APP_passed -->
<g id="node62" class="node">
<title>TEST_APP_passed</title>
<polygon fill="lightgray" stroke="black" points="89,-151 35,-151 35,-115 89,-115 89,-151"/>
<text xml:space="preserve" text-anchor="middle" x="62" y="-129.12" font-family="Times New Roman,serif" font-size="10.00">passed</text>
</g>
<!-- TEST_APP_failed -->
<g id="node63" class="node">
<title>TEST_APP_failed</title>
<polygon fill="lightgray" stroke="black" points="179,-61 125,-61 125,-25 179,-25 179,-61"/>
<text xml:space="preserve" text-anchor="middle" x="152" y="-39.12" font-family="Times New Roman,serif" font-size="10.00">failed</text>
</g>
<!-- TEST_APP_run_test -->
<g id="node64" class="node">
<title>TEST_APP_run_test</title>
<polygon fill="lightcoral" stroke="black" points="54,-36 0,-36 0,0 54,0 54,-36"/>
<text xml:space="preserve" text-anchor="middle" x="27" y="-14.12" font-family="Times New Roman,serif" font-size="10.00">run_test</text>
</g>
<!-- legend_full -->
<g id="node65" class="node">
<title>legend_full</title>
<polygon fill="palegreen" stroke="black" points="500.38,-133.62 386.12,-133.62 386.12,-92.62 500.38,-92.62 500.38,-133.62"/>
<text xml:space="preserve" text-anchor="middle" x="443.25" y="-116.33" font-family="Times New Roman,serif" font-size="14.00">Full Contract</text>
<text xml:space="preserve" text-anchor="middle" x="443.25" y="-99.83" font-family="Times New Roman,serif" font-size="14.00">(require + ensure)</text>
</g>
<!-- legend_partial -->
<g id="node66" class="node">
<title>legend_partial</title>
<polygon fill="khaki" stroke="black" points="510.88,-69.62 393.62,-69.62 393.62,-28.62 510.88,-28.62 510.88,-69.62"/>
<text xml:space="preserve" text-anchor="middle" x="452.25" y="-52.32" font-family="Times New Roman,serif" font-size="14.00">Partial Contract</text>
<text xml:space="preserve" text-anchor="middle" x="452.25" y="-35.82" font-family="Times New Roman,serif" font-size="14.00">(require or ensure)</text>
</g>
<!-- legend_none -->
<g id="node67" class="node">
<title>legend_none</title>
<polygon fill="lightcoral" stroke="black" points="476.62,-192.12 393.88,-192.12 393.88,-156.12 476.62,-156.12 476.62,-192.12"/>
<text xml:space="preserve" text-anchor="middle" x="435.25" y="-169.07" font-family="Times New Roman,serif" font-size="14.00">No Contract</text>
</g>
<!-- legend_attr -->
<g id="node68" class="node">
<title>legend_attr</title>
<polygon fill="lightgray" stroke="black" points="370.63,-205.62 305.88,-205.62 305.88,-164.62 370.63,-164.62 370.63,-205.62"/>
<text xml:space="preserve" text-anchor="middle" x="338.25" y="-188.32" font-family="Times New Roman,serif" font-size="14.00">Attribute</text>
<text xml:space="preserve" text-anchor="middle" x="338.25" y="-171.82" font-family="Times New Roman,serif" font-size="14.00">(n/a)</text>
</g>
<!-- legend_stats -->
<g id="node69" class="node">
<title>legend_stats</title>
<polygon fill="white" stroke="black" points="356.38,-143.62 290.12,-143.62 290.12,-36.62 362.38,-36.62 362.38,-137.62 356.38,-143.62"/>
<polyline fill="none" stroke="black" points="356.38,-143.62 356.38,-137.62"/>
<polyline fill="none" stroke="black" points="362.38,-137.62 356.38,-137.62"/>
<text xml:space="preserve" text-anchor="middle" x="326.25" y="-126.33" font-family="Times New Roman,serif" font-size="14.00">Statistics</text>
<text xml:space="preserve" text-anchor="middle" x="326.25" y="-109.83" font-family="Times New Roman,serif" font-size="14.00">Full: 15</text>
<text xml:space="preserve" text-anchor="middle" x="326.25" y="-93.33" font-family="Times New Roman,serif" font-size="14.00">Partial: 17</text>
<text xml:space="preserve" text-anchor="middle" x="326.25" y="-76.83" font-family="Times New Roman,serif" font-size="14.00">None: 5</text>
<text xml:space="preserve" text-anchor="middle" x="326.25" y="-60.33" font-family="Times New Roman,serif" font-size="14.00">Attr: 29</text>
<text xml:space="preserve" text-anchor="middle" x="326.25" y="-43.83" font-family="Times New Roman,serif" font-size="14.00">Total: 66</text>
</g>
</g>
</svg>
