<?xml version="1.0" encoding="UTF-8" standalone="no"?>
<!DOCTYPE svg PUBLIC "-//W3C//DTD SVG 1.1//EN"
 "http://www.w3.org/Graphics/SVG/1.1/DTD/svg11.dtd">
<!-- Generated by graphviz version 14.1.1 (20251213.1925)
 -->
<!-- Title: Dependencies Pages: 1 -->
<svg width="348pt" height="429pt"
 viewBox="0.00 0.00 348.00 429.00" xmlns="http://www.w3.org/2000/svg" xmlns:xlink="http://www.w3.org/1999/xlink">
<g id="graph0" class="graph" transform="scale(1 1) rotate(0) translate(4 424.5)">
<title>Dependencies</title>
<polygon fill="white" stroke="none" points="-4,4 -4,-424.5 344.25,-424.5 344.25,4 -4,4"/>
<text xml:space="preserve" text-anchor="middle" x="170.12" y="-7.2" font-family="Times New Roman,serif" font-size="14.00">simple_graphql &#45; Dependencies</text>
<!-- simple_graphql -->
<g id="node1" class="node">
<title>simple_graphql</title>
<polygon fill="lightblue" stroke="black" points="100.75,-240.5 0,-240.5 0,-204.5 100.75,-204.5 100.75,-240.5"/>
<text xml:space="preserve" text-anchor="middle" x="50.38" y="-217.45" font-family="Times New Roman,serif" font-size="14.00">simple_graphql</text>
</g>
<!-- simple_json -->
<g id="node2" class="node">
<title>simple_json</title>
<polygon fill="lightblue" stroke="black" points="333.5,-420.5 251.5,-420.5 251.5,-384.5 333.5,-384.5 333.5,-420.5"/>
<text xml:space="preserve" text-anchor="middle" x="292.5" y="-397.45" font-family="Times New Roman,serif" font-size="14.00">simple_json</text>
</g>
<!-- simple_graphql&#45;&gt;simple_json -->
<g id="edge1" class="edge">
<title>simple_graphql&#45;&gt;simple_json</title>
<path fill="none" stroke="black" stroke-dasharray="5,2" d="M33.25,-240.75C33.25,-286.51 33.25,-402.5 33.25,-402.5 33.25,-402.5 239.62,-402.5 239.62,-402.5"/>
<polygon fill="black" stroke="black" points="239.62,-406 249.62,-402.5 239.62,-399 239.62,-406"/>
</g>
<!-- simple_http -->
<g id="node3" class="node">
<title>simple_http</title>
<polygon fill="lightblue" stroke="black" points="332.75,-348.5 252.25,-348.5 252.25,-312.5 332.75,-312.5 332.75,-348.5"/>
<text xml:space="preserve" text-anchor="middle" x="292.5" y="-325.45" font-family="Times New Roman,serif" font-size="14.00">simple_http</text>
</g>
<!-- simple_graphql&#45;&gt;simple_http -->
<g id="edge2" class="edge">
<title>simple_graphql&#45;&gt;simple_http</title>
<path fill="none" stroke="black" stroke-dasharray="5,2" d="M67.25,-240.82C67.25,-271.63 67.25,-330.5 67.25,-330.5 67.25,-330.5 240.46,-330.5 240.46,-330.5"/>
<polygon fill="black" stroke="black" points="240.46,-334 250.46,-330.5 240.46,-327 240.46,-334"/>
</g>
<!-- simple_testing -->
<g id="node4" class="node">
<title>simple_testing</title>
<polygon fill="lightblue" stroke="black" points="340.25,-276.5 244.75,-276.5 244.75,-240.5 340.25,-240.5 340.25,-276.5"/>
<text xml:space="preserve" text-anchor="middle" x="292.5" y="-253.45" font-family="Times New Roman,serif" font-size="14.00">simple_testing</text>
</g>
<!-- simple_graphql&#45;&gt;simple_testing -->
<g id="edge3" class="edge">
<title>simple_graphql&#45;&gt;simple_testing</title>
<path fill="none" stroke="black" stroke-dasharray="5,2" d="M101.02,-228.5C161.69,-228.5 255.25,-228.5 255.25,-228.5 255.25,-228.5 255.25,-229.65 255.25,-229.65"/>
<polygon fill="black" stroke="black" points="251.75,-228.5 255.25,-238.5 258.75,-228.5 251.75,-228.5"/>
</g>
<!-- base -->
<g id="node5" class="node">
<title>base</title>
<polygon fill="lightgray" stroke="black" points="319.5,-204.5 265.5,-204.5 265.5,-168.5 319.5,-168.5 319.5,-204.5"/>
<text xml:space="preserve" text-anchor="middle" x="292.5" y="-181.45" font-family="Times New Roman,serif" font-size="14.00">base</text>
</g>
<!-- simple_graphql&#45;&gt;base -->
<g id="edge4" class="edge">
<title>simple_graphql&#45;&gt;base</title>
<path fill="none" stroke="black" stroke-dasharray="5,2" d="M101.08,-216.5C172.01,-216.5 292.25,-216.5 292.25,-216.5 292.25,-216.5 292.25,-215.35 292.25,-215.35"/>
<polygon fill="black" stroke="black" points="295.75,-216.5 292.25,-206.5 288.75,-216.5 295.75,-216.5"/>
</g>
<!-- time -->
<g id="node6" class="node">
<title>time</title>
<polygon fill="lightgray" stroke="black" points="319.5,-132.5 265.5,-132.5 265.5,-96.5 319.5,-96.5 319.5,-132.5"/>
<text xml:space="preserve" text-anchor="middle" x="292.5" y="-109.45" font-family="Times New Roman,serif" font-size="14.00">time</text>
</g>
<!-- simple_graphql&#45;&gt;time -->
<g id="edge5" class="edge">
<title>simple_graphql&#45;&gt;time</title>
<path fill="none" stroke="black" stroke-dasharray="5,2" d="M67.25,-204.18C67.25,-173.37 67.25,-114.5 67.25,-114.5 67.25,-114.5 253.82,-114.5 253.82,-114.5"/>
<polygon fill="black" stroke="black" points="253.82,-118 263.82,-114.5 253.82,-111 253.82,-118"/>
</g>
<!-- testing -->
<g id="node7" class="node">
<title>testing</title>
<polygon fill="lightgray" stroke="black" points="319.5,-60.5 265.5,-60.5 265.5,-24.5 319.5,-24.5 319.5,-60.5"/>
<text xml:space="preserve" text-anchor="middle" x="292.5" y="-37.45" font-family="Times New Roman,serif" font-size="14.00">testing</text>
</g>
<!-- simple_graphql&#45;&gt;testing -->
<g id="edge6" class="edge">
<title>simple_graphql&#45;&gt;testing</title>
<path fill="none" stroke="black" stroke-dasharray="5,2" d="M33.25,-204.25C33.25,-158.49 33.25,-42.5 33.25,-42.5 33.25,-42.5 253.73,-42.5 253.73,-42.5"/>
<polygon fill="black" stroke="black" points="253.73,-46 263.73,-42.5 253.73,-39 253.73,-46"/>
</g>
</g>
</svg>
